<svg xmlns="http://www.w3.org/2000/svg" viewBox="0 0 362.55 151.03"><g style="isolation:isolate"><g id="Layer_1" data-name="Layer 1"><path d="M243.33,98.16l14-11.8,14.25,6.69S261.49,99.76,243.33,98.16Z" style="fill:#b2712e"/><path d="M271.63,93.05c-5.32,3.77-15.7,6.83-28.3,5.11C252.78,98.16,263,97.48,271.63,93.05Z" style="fill:#2d1c0f"/><path d="M186.27,7.36S-16.65,1.93,1.1,76.9c8.71,36.81,59.79,90.78,116.51,69.2s134.33,0,179,0S389.11,45.39,345.14,15.77,186.27,7.36,186.27,7.36Z" style="fill:#b2b2ab;opacity:0.2"/><path d="M334.7,22.74c-24.57-8.31-50.64-10.1-62.58-4.07S164.25,54.06,164.25,54.06l2.91.23,96.71,72.35s44.91-2.44,49.51-7S284,102.84,289.2,102.84s52.92.45,47.36-13.15-34.12-20.66-28.74-26-24.36-10.92-14.14-21.14S359.27,31,334.7,22.74Z" style="fill:#b2b2ab;opacity:0.3;mix-blend-mode:multiply"/><path d="M173.58,33.49c-14-7.36-32.21-6.66-47.4-2.25l.92,2.55C139.16,31.62,155,32,165.31,37.56a48.66,48.66,0,0,0-17.55,16.11l2.61,1.24c18.21-25,65.92-27.4,99.91-22.9l1.29-7.34C227.47,22.55,195.75,24.23,173.58,33.49Z" style="fill:#6d3e18"/><path d="M263.87,126.64s20,.44,30.69-5.55l-15.46-7.25Z" style="fill:#b2712e"/><polygon points="188.17 69.33 263.87 126.64 279.1 113.84 200.36 54.29 188.17 69.33" style="fill:#db9643"/><path d="M188.17,69.33c24.14,16.51,61.7,45.49,75.7,57.31C249.44,116.87,212.7,89.84,188.17,69.33Z" style="fill:#2d1c0f"/><polygon points="217.29 62.85 200.36 54.29 279.1 113.84 294.56 121.09 217.29 62.85" style="fill:#a36328"/><polygon points="103.99 56.61 104.64 72.51 182.63 65.74 185.08 49.54 103.99 56.61" style="fill:#db9643"/><path d="M104.64,72.51l78-6.77C157.4,69.51,128.32,71.32,104.64,72.51Z" style="fill:#965423"/><polygon points="104.37 65.74 168.43 61.56 104.34 65.19 104.37 65.74" style="fill:#965423"/><polygon points="104.23 62.3 169.9 55.92 104.19 61.45 104.23 62.3" style="fill:#965423"/><polygon points="119.12 52.49 103.99 56.61 185.08 49.54 198.58 45.44 119.12 52.49" style="fill:#b2712e"/><path d="M178.7,69.25l2.85-19.69,16.36-4.87S194.55,57.45,178.7,69.25Z" style="fill:#b2712e"/><polygon points="210.49 62.04 277.21 77.02 285.1 65.19 215.72 49.64 210.49 62.04" style="fill:#db9643"/><polygon points="229.67 50.39 215.72 49.64 285.1 65.19 297.71 65.53 229.67 50.39" style="fill:#995724"/><path d="M277.21,77l7.89-11.83,12.61.34S294.56,76.32,277.21,77Z" style="fill:#b2712e"/><path d="M297.71,65.53c-1,6.24-9.3,12.87-20.5,11.49,4.46-.47,11.48-.76,17.09-6.35A14.11,14.11,0,0,0,297.71,65.53Z" style="fill:#854f20"/><path d="M280.89,69.9a5.74,5.74,0,0,0,3.11.21A10.07,10.07,0,0,0,289.2,67c-2.46,2.25-4.93,2.92-6.74,2.74-.88-.06-18.92-6-39.55-11C255.53,62.89,271.56,67.29,280.89,69.9Z" style="fill:#854f20"/><path d="M278.47,74.89c-16.16-6.34-26.9-9.94-31.61-11.56,6.78,2.82,24,9.87,31.44,12.36,4.36.5,10-1.08,15.38-6.62C288.1,74,282.49,75.42,278.47,74.89Z" style="fill:#854f20"/><path d="M292.19,16.75s.46-6.72-3-6.72-52.84,23.42-70.93,31.76c-15.06,6.94-43.06,26.62-68.79,33.65S90.86,90.92,90.86,90.92l8.41,13.24s90.46-28.53,110.86-38.73c18.45-9.22,45.88-14.15,60.91-13,5.24.41,6-7.78-.18-7.45,0,0-45.33,9.88-48.16,8-5.76-3.77,7.24-6.6,22.53-16.61C262.58,25.08,292.19,16.75,292.19,16.75Z" style="fill:#432612"/><path d="M89.47,99.15s4.65,7.93,9.8,5S95.61,89,90.86,90.92,89.47,99.15,89.47,99.15Z" style="fill:#432612"/><path d="M89.86,99.05s4.29,7.32,9.06,4.63-3.38-14.06-7.78-12.24S89.86,99.05,89.86,99.05Z" style="fill:#db9643"/><path d="M90.45,98.89s3.76,6.39,7.92,4-3-12.28-6.79-10.69S90.45,98.89,90.45,98.89Z" style="fill:#e28c37"/><path d="M90.89,98.76s3.36,5.72,7.07,3.61-2.64-11-6.06-9.54S90.89,98.76,90.89,98.76Z" style="fill:#db9643"/><path d="M91.43,98.62s2.86,4.88,6,3.08-2.25-9.37-5.18-8.15S91.43,98.62,91.43,98.62Z" style="fill:#e28c37"/><path d="M145.46,122.34s13.3-52.77,37.71-62.59,50.38-17.24,50.38-17.24l2.78,8s-32.14-5.26-53.16,18.23S155,125.28,155,125.28Z" style="fill:#010101"/><path d="M154.89,125.58c-.66,1.62-4.13,1.94-6.4,1s-3.58-3-2.91-4.63,3-2.17,5.33-1.24S155.56,124,154.89,125.58Z" style="fill:#3b1a13"/><path d="M193.79,55.65c-2.94,2-7.41,4.76-9.67,4.76a2,2,0,0,1-1.37-.49A25.55,25.55,0,0,0,180,61.28a4.24,4.24,0,0,0,.23,1s0,1.36,1.93,1.36,4.94-2,7.26-3.4a41.13,41.13,0,0,0,5.76-5.12Z" style="fill:#ed2224;opacity:0.28;mix-blend-mode:screen"/><path d="M228.57,62.09C220.14,48.72,204,40.22,188.65,36.44l-.48,2.67c11.52,4.15,25.05,12.36,31.2,22.37a48.42,48.42,0,0,0-23.25,5.18L197.77,69c28.29-12.59,70.78,9.23,98,30.12l4.78-5.71C280.71,79.56,252.4,65.15,228.57,62.09Z" style="fill:#2d1c0f"/><path d="M235.88,89.69c15.66,12.61,31.25,24.2,37.53,28.93a9.08,9.08,0,0,0,4.73.93,9.34,9.34,0,0,0,4.41-1.51,8.82,8.82,0,0,1-8.78.28C262.83,109.72,247.8,98.28,235.88,89.69Z" style="fill:#783e1a"/><path d="M267.67,123.44,224.84,87.69l41.3,37c.2,0,3.9,1.91,12.16.13a56,56,0,0,0,10.9-3.77C283,123.37,273.91,125.77,267.67,123.44Z" style="fill:#783e1a"/><path d="M255,99.15c-8.52-6.3-30.22-21.6-39.87-28C223.58,77.38,245.26,92.67,255,99.15Z" style="fill:#783e1a"/><path d="M206.29,72.51s28.14,28.54,36.91,31.65,13,8.44,20,9S244,97.67,235.88,87.69,203.16,62.09,206.29,72.51Z" style="fill:#f15622;opacity:0.66;mix-blend-mode:screen"/><path d="M182.5,79.24c7.22,14.06,22.56,24,37.52,29.06l.72-2.62c-11.12-5.14-27.32-15.29-32.57-25.8,8.41.8,19.53.74,27.06-2.34L213.79,75c-29.28,10.07-69.7-15.4-94.95-38.59l-5.26,5.27C132.1,57.27,159,74.11,182.5,79.24Z" style="fill:#6d3e18"/><path d="M168.3,85.34c-1.8,15.7,5.47,32.44,15.08,45l2-1.78c-6.39-10.45-14.52-28-13.06-39.71,6.56,5.34,16.14,11.63,24.11,13.25l.2-2.88c-29.95-7.9-49.42-51.52-57.54-84.83l-7.31,1.46C138.58,39.08,151.63,68,168.3,85.34Z" style="fill:#2d1c0f"/><path d="M110.33,52.16c-15-5.08-32.87-1.51-47.17,5.23l1.3,2.38c11.57-4,29.82-8.76,40.91-4.86-6.6,5.28-14.1,13.8-17.37,21.24l2.78.81c14-27.61,60.78-37.43,95.05-38.34l.12-7.45C161.82,32.87,130.76,39.52,110.33,52.16Z" style="fill:#2d1c0f"/></g></g></svg>