<svg xmlns="http://www.w3.org/2000/svg" viewBox="0 0 164.87 99.59"><g id="OBJECTS"><polygon points="164.87 99.58 0 99.58 11.31 66.73 22.61 49.8 37.68 60.96 48.99 56.25 62.18 18.57 81.96 0 87.61 12.91 103.63 16.69 110.22 36.47 123.41 44.95 137.54 78.86 164.87 99.58" style="fill:#fff"/><polygon points="113.6 99.58 0 99.58 11.31 66.73 22.61 49.8 37.68 60.96 48.99 56.25 62.18 18.57 81.96 0 76.47 16.36 84.2 34.27 80.34 49.8 105.2 59.68 113.6 99.58" style="fill:#9bd6ea"/><polygon points="48.99 56.25 61.67 67.2 66.3 86.21 57.64 68.09 59.6 89.31 51.26 70.74 40.65 72.78 37.68 60.96 48.99 56.25" style="fill:#bbe4f1"/><polygon points="22.61 49.8 31.25 99.58 40.65 72.78 37.68 60.96 22.61 49.8" style="fill:#e6f5fa"/><polygon points="87.61 12.91 76.47 16.36 103.63 16.69 87.61 12.91" style="fill:#9bd6ea"/><polygon points="84.2 34.27 84.2 47.75 101.22 41.01 88.18 49.79 105.2 59.68 80.34 49.8 84.2 34.27" style="fill:#e6f5fa"/><polygon points="137.54 78.86 123.55 91.08 137.54 84.97 164.87 99.58 137.54 78.86" style="fill:#e6f5fa"/><polygon points="123.41 44.95 123.55 91.08 113.6 99.58 105.2 59.68 123.41 44.95" style="fill:#bbe4f1"/><polygon points="80.34 49.8 80.34 54.71 92.77 72.27 87.19 56.25 105.2 59.68 80.34 49.8" style="fill:#bbe4f1"/><polygon points="11.31 66.73 20.2 99.58 0 99.58 11.31 66.73" style="fill:#bbe4f1"/><polygon points="99.78 99.58 83.82 67.97 87.19 83.16 86.74 92.18 74.92 94.83 59.6 99.58 99.78 99.58" style="fill:#bbe4f1"/><polygon points="62.18 18.57 76.47 16.36 64.64 22.55 48.99 56.25 62.18 18.57" style="fill:#bbe4f1"/><polygon points="84.2 34.27 103.63 16.69 76.47 16.36 84.2 34.27" style="fill:#e6f5fa"/></g></svg>