<svg xmlns="http://www.w3.org/2000/svg" viewBox="0 0 147.51 80.02"><g id="OBJECTS"><polygon points="147.51 80.02 130.16 70.38 111.84 75.2 100.27 70.38 93.33 47.24 93.33 5.79 85.81 0 75.2 0 63.63 25.07 52.06 29.89 40.49 61.7 24.1 75.2 0 80.02 147.51 80.02" style="fill:#fff"/><polygon points="52.06 29.89 69.11 30.95 63.63 25.07 52.06 29.89" style="fill:#bbe4f1"/><polygon points="69.11 30.95 77.73 4.86 75.2 0 63.63 25.07 69.11 30.95" style="fill:#9bd6ea"/><polygon points="40.49 61.7 38.05 80.02 24.1 75.2 40.49 61.7" style="fill:#9bd6ea"/><polygon points="69.11 30.95 62.26 60.24 52.06 60.24 49.32 80.02 57.66 80.02 56.29 63.88 64.47 65.54 69.11 30.95" style="fill:#e6f5fa"/><polygon points="77.73 4.86 85.8 9.51 64.47 65.54 69.11 30.95 77.73 4.86" style="fill:#bbe4f1"/><polygon points="93.33 47.24 87.79 80.02 100.27 70.38 93.33 47.24" style="fill:#e6f5fa"/><polygon points="93.33 47.24 75.14 80.02 87.79 80.02 93.33 47.24" style="fill:#bbe4f1"/><polygon points="85.8 9.51 91.09 9.51 93.33 47.24 75.14 80.02 64.47 65.54 85.8 9.51" style="fill:#e6f5fa"/><polygon points="52.06 29.89 52.06 60.24 49.32 80.02 38.05 80.02 40.49 61.7 52.06 29.89" style="fill:#bbe4f1"/><polygon points="111.84 75.2 128.25 80.02 130.16 70.38 111.84 75.2" style="fill:#bbe4f1"/><polygon points="100.27 70.38 106.36 80.02 87.79 80.02 100.27 70.38" style="fill:#bbe4f1"/></g></svg>