<svg xmlns="http://www.w3.org/2000/svg" viewBox="0 0 108.1 68.92"><g id="OBJECTS"><polygon points="108.1 68.92 95.77 61.67 89.24 56.59 89.24 31.2 83.43 11.61 72.55 11.61 59.49 0 47.16 0 37 5.08 31.2 0 18.86 4.35 18.86 23.22 10.88 42.44 10.88 52.24 0 64.57 0 68.92 108.1 68.92" style="fill:#fff"/><polygon points="25.74 10.59 37 5.08 25.74 23.51 25.74 10.59" style="fill:#bbe4f1"/><polygon points="18.86 4.35 25.74 10.59 25.74 23.51 18.86 23.22 18.86 4.35" style="fill:#9bd6ea"/><polygon points="25.74 23.51 18.86 42.71 10.88 42.44 18.86 23.22 25.74 23.51" style="fill:#bbe4f1"/><polygon points="18.86 42.71 18.31 54.89 10.88 52.24 10.88 42.44 18.86 42.71" style="fill:#9bd6ea"/><polygon points="18.31 54.89 0 64.57 10.88 52.24 18.31 54.89" style="fill:#bbe4f1"/><polygon points="37 5.08 51.59 8 47.16 0 37 5.08" style="fill:#bbe4f1"/><polygon points="51.59 8 25.74 23.51 37 5.08 51.59 8" style="fill:#9bd6ea"/><polygon points="51.59 8 49.07 32.96 56.85 68.92 22.3 68.92 18.31 54.89 18.86 42.71 25.74 23.51 51.59 8" style="fill:#e6f5fa"/><polygon points="72.55 11.61 83.34 30.52 89.24 56.59 87.77 68.92 72.55 68.92 80.89 54.89 78.73 30.52 72.55 11.61" style="fill:#e6f5fa"/><polygon points="83.43 11.61 83.34 30.52 72.55 11.61 83.43 11.61" style="fill:#9bd6ea"/><polygon points="56.85 68.92 63.03 40.27 51.59 8 25.74 23.51 56.85 68.92" style="fill:#bbe4f1"/><polygon points="63.03 40.27 72.55 11.61 51.59 8 63.03 40.27" style="fill:#e6f5fa"/><polygon points="89.24 56.59 99.78 68.92 87.77 68.92 89.24 56.59" style="fill:#bbe4f1"/><polygon points="80.89 54.89 87.77 68.92 80.89 68.92 80.89 54.89" style="fill:#9bd6ea"/><polygon points="25.74 23.51 27.96 40.27 25.74 44.31 30.42 58.4 29.19 46.52 29.93 42.71 33.37 42.44 37 46.28 50.3 59.36 25.74 23.51" style="fill:#9bd6ea"/></g></svg>