<svg xmlns="http://www.w3.org/2000/svg" viewBox="0 0 137.49 66.63"><g id="OBJECTS"><polygon points="137.49 66.63 0 66.63 6.39 61.65 14.17 53.15 23.39 49.61 33.32 21.26 44.65 14.89 54.58 0 66.05 17.01 70.17 17.02 85.06 33.3 98.52 33.3 110.56 52.45 118.36 57.41 129.69 57.41 137.49 66.63" style="fill:#fff"/><polygon points="67.34 33.3 66.05 66.63 0 66.63 6.39 61.65 14.17 53.15 23.39 49.61 33.32 21.26 44.65 14.89 54.58 0 67.34 33.3" style="fill:#9bd6ea"/><polygon points="23.39 49.61 31.36 66.63 16.58 66.63 16.58 52.23 23.39 49.61" style="fill:#e6f5fa"/><polygon points="67.34 33.3 81.06 66.63 66.05 66.63 67.34 33.3" style="fill:#e6f5fa"/><polygon points="85.06 33.3 85.06 66.63 93.56 66.63 98.52 33.3 85.06 33.3" style="fill:#9bd6ea"/><polygon points="110.56 52.45 107.38 66.63 110.21 66.63 118.36 57.41 110.56 52.45" style="fill:#bbe4f1"/><polygon points="98.52 33.3 101.67 66.63 93.56 66.63 98.52 33.3" style="fill:#e6f5fa"/><polygon points="44.65 14.89 50.38 31.7 50.38 44.34 44.65 32.95 41.11 39.34 38.54 55.46 38.54 35.17 33.32 21.26 44.65 14.89" style="fill:#bbe4f1"/><polygon points="66.05 17.01 72.29 24.1 70.17 17.02 66.05 17.01" style="fill:#bbe4f1"/><polygon points="129.69 57.41 122.97 66.63 122.97 62.02 118.36 66.63 118.36 57.41 129.69 57.41" style="fill:#e6f5fa"/></g></svg>