<svg xmlns="http://www.w3.org/2000/svg" viewBox="0 0 100.98 37.68"><g id="OBJECTS"><polygon points="49.92 25.22 50.28 36.71 69.11 35.13 68.76 23.64 49.92 25.22" style="fill:#e6f5fa"/><polygon points="16.09 21.87 49.92 25.22 68.76 23.64 76.44 26.19 88.69 23.02 100.62 9.67 63.38 0 23.73 1.23 0 10.63 16.09 21.87" style="fill:#e6f5fa"/><polygon points="38.62 24.1 43.44 18.04 34.95 24.04 38.62 24.1" style="fill:#9bd6ea"/><polygon points="88.69 23.02 89.04 34.51 100.98 21.16 100.62 9.67 88.69 23.02" style="fill:#e6f5fa"/><polygon points="76.44 26.19 76.79 37.68 89.04 34.51 88.69 23.02 76.44 26.19" style="fill:#bbe4f1"/><polygon points="68.76 23.64 69.11 35.13 76.79 37.68 76.44 26.19 68.76 23.64" style="fill:#9bd6ea"/><polygon points="16.09 21.87 16.44 33.36 50.28 36.71 49.92 25.22 16.09 21.87" style="fill:#bbe4f1"/><polygon points="34.95 24.04 35.24 32.77 38.62 24.1 34.95 24.04" style="fill:#9bd6ea"/><polygon points="0 10.63 0.36 22.12 16.44 33.36 16.09 21.87 0 10.63" style="fill:#9bd6ea"/></g></svg>