<svg id="Layer_1" data-name="Layer 1" xmlns="http://www.w3.org/2000/svg" viewBox="0 0 86.56 86.56"><path d="M86.56,43.28A43.28,43.28,0,1,1,43.28,0,43.28,43.28,0,0,1,86.56,43.28Z" style="fill:#ffce00"/><path d="M69.75,18.46C62.7,5,49.63,14.54,51.92,24.6,53.73,32.5,62.4,43.71,62.4,43.71c1.25-.44,13.33-4.8,19.1-10.5C88.83,26,82.94,10.9,69.75,18.46Z" style="fill:#cc342f"/><path d="M16.8,18.46C23.86,5,36.92,14.54,34.63,24.6c-1.8,7.9-10.47,19.11-10.47,19.11-1.25-.44-13.34-4.8-19.1-10.5C-2.28,26,3.61,10.9,16.8,18.46Z" style="fill:#cc342f"/><path d="M27.48,52c-1.09-.36-2.11.82-1.79,2.07,1.86,7.39,9,12.9,17.59,12.9S59,61.43,60.87,54c.31-1.25-.71-2.43-1.79-2.07a50.28,50.28,0,0,1-15.8,2.47A50.28,50.28,0,0,1,27.48,52Z" style="fill:#562912"/><path d="M43.28,59.43A9.22,9.22,0,0,0,34.84,65a19.31,19.31,0,0,0,16.87,0A9.19,9.19,0,0,0,43.28,59.43Z" style="fill:#cc342f"/></svg>